<svg width="25" height="25" viewBox="0 0 25 25" fill="none" xmlns="http://www.w3.org/2000/svg">
<g clip-path="url(#clip0_12_6)">
<path d="M16.1458 15.2344C16.1458 15.7385 15.7427 16.1458 15.2458 16.1458H9.75312C9.25625 16.1458 8.85417 15.7375 8.85417 15.2344C8.85417 14.7312 9.25729 14.3229 9.75312 14.3229H15.2448C15.7427 14.3229 16.1458 14.7302 16.1458 15.2344ZM9.69687 10.6771H12.2656C12.7323 10.6771 13.1083 10.2687 13.1083 9.76562C13.1083 9.2625 12.7323 8.85417 12.2646 8.85417H9.69687C9.23125 8.85417 8.85417 9.2625 8.85417 9.76562C8.85417 10.2687 9.23125 10.6771 9.69687 10.6771ZM25 12.5C25 19.4031 19.4031 25 12.5 25C5.59687 25 0 19.4031 0 12.5C0 5.59687 5.59687 0 12.5 0C19.4031 0 25 5.59687 25 12.5ZM19.7917 11.4177C19.7917 11.0188 19.4677 10.6969 19.0719 10.6969H17.8865C17.2792 10.6969 17.1677 10.2323 17.1677 9.65937C17.1667 7.20104 15.1781 5.20833 12.725 5.20833H9.65C7.19687 5.20833 5.20833 7.20104 5.20833 9.65833V15.3406C5.20833 17.799 7.19687 19.7917 9.65 19.7917H15.3521C17.8031 19.7917 19.7917 17.799 19.7917 15.3417V11.4177Z" fill="#555555"/>
</g>
<defs>
<clipPath id="clip0_12_6">
<rect width="25" height="25" fill="white"/>
</clipPath>
</defs>
</svg>
