<svg width="200" height="25" viewBox="0 0 200 25" fill="none" xmlns="http://www.w3.org/2000/svg">
<path d="M1.97598 17.4147L1.90891 9.68242C2.07885 5.28582 4.0193 2.90155 7.17642 1.9297C10.3335 0.958122 14.7076 1.39789 18.2284 2.75137L17.1822 5.14157C10.0907 3.8777 5.81951 3.71326 5.81951 11.8487C5.81951 14.3745 5.92768 17.1469 6.45581 18.5887C6.98394 20.0304 8.94772 20.6015 8.94772 20.6015L14.9942 20.6346V13.6541H11.9585L9.49361 10.7657L17.4675 10.7622C17.7356 10.7622 18.3255 11.3731 18.3255 11.6331L18.3141 23.6522L7.3286 23.6686C3.90106 23.6686 1.97598 19.5441 1.97598 17.4147ZM133.198 18.9514L133.058 1.61885H136.619L136.755 18.2961C136.755 19.0782 138.713 20.6241 140.773 20.6241C142.833 20.6241 145.408 19.1385 145.408 18.1072L145.41 1.61885H148.967V18.1403C148.967 20.9178 145.894 23.8729 141.198 23.8729C136.502 23.8729 133.198 21.0165 133.198 18.9514ZM23.9875 20.658L24.0554 12.1202L24.1232 4.1856C24.1232 3.32329 25.8439 1.61885 26.9081 1.61885H38.1624L38.1012 4.74809H28.3464C27.7828 4.99435 27.7695 5.07993 27.5616 5.62816V18.9972C27.5616 19.9088 28.6256 20.3633 29.1816 20.3633L37.9949 20.1846L38.4583 22.6908C34.6609 23.9576 31.3254 23.6401 27.2194 23.6697C26.3084 23.6697 23.9875 21.8479 23.9875 20.658ZM76.416 20.5143L76.4081 4.4881C76.4081 3.43767 78.0683 1.61885 79.4032 1.61885H90.7005L90.6368 4.25907C90.6368 4.43374 90.3073 4.74809 90.1331 4.74809H81.1011C80.4833 4.74809 79.9918 5.28905 79.9918 5.90107L79.9539 18.7232C79.9539 19.3977 81.1109 20.3902 81.9444 20.3902L90.5759 20.1623L90.8102 22.8184C87.3994 23.7294 84.0752 23.5924 80.5578 23.6764C78.3774 23.6764 76.416 21.7822 76.416 20.5143ZM159.519 23.5663C157.211 23.3658 155.218 22.7648 153.04 22.0538L153.87 18.9302C153.87 18.9302 157.558 19.8813 159.474 20.0506C160.48 20.1394 162.549 20.0215 162.549 20.0215C164.116 19.399 165.408 18.0127 165.037 16.6075C163.607 13.3427 153.229 14.0553 153.753 6.70363C154.506 -0.630315 164.855 1.26601 168.68 3.11013L167.601 5.77484C165.535 5.11331 157.503 2.9037 157.503 7.1582C157.6 10.971 168.127 10.0153 168.971 16.5209C169.402 20.7059 165.721 23.5041 163.075 23.5041L159.519 23.5663ZM181.728 12.2099C181.728 2.79982 188.348 -1.05044 197.941 2.86145C197.672 3.68258 197.332 4.64905 197.064 5.47018C191.063 4.07256 185.924 4.07068 185.528 11.4638C185.528 20.3927 188.459 20.5665 197.137 19.5514L198.16 22.3296C186.12 27.0653 181.728 20.2045 181.728 12.2099ZM43.4488 2.65906C43.4488 2.0387 43.6237 1.61912 44.0469 1.61912H48.3549C48.8565 1.61912 49.0851 2.21848 49.0851 2.21848L57.3201 19.0699L57.4447 1.61885H60.9953V22.5417C60.9953 22.96 60.4868 23.523 60.1135 23.523H56.2917C56.016 23.523 55.6527 23.2393 55.5448 23.0493L47.1239 5.83109L46.9993 23.523H43.4488V2.65906ZM66.9238 1.61912H70.4804V23.5233H66.9238V1.61912ZM106.048 2.37539C106.093 2.05243 106.465 1.61912 106.793 1.61912H112.377C112.691 1.61912 113.116 2.02336 113.116 2.46151L116.257 16.2784C116.367 16.6942 116.848 16.8315 116.965 16.3887L120.099 2.46124C120.207 1.95339 120.483 1.65518 120.823 1.61885H126.406C127.085 1.60082 127.11 2.33367 127.11 2.33367L128.612 23.523H124.853L123.476 4.73732C123.476 4.73732 123.252 4.339 123.002 4.7201L120.233 17.3851C119.811 19.2782 118.831 20.0414 116.559 20.0414C114.287 20.0414 113.705 19.0812 113.115 17.517L110.211 4.74809C110.128 4.48407 109.765 4.51071 109.735 4.78658L108.419 23.523H104.735L106.048 2.37539ZM173.627 7.52853L177.184 11.115V23.5233H173.627V7.52853ZM83.7833 13.7391L80.8147 10.5248H89.9239L89.9366 13.7386L83.7833 13.7391ZM28.2321 10.5348L37.2835 10.5248V13.6541H31.1907L28.2321 10.5348ZM173.627 4.37561V1.61885H177.184V7.87706H177.053L173.627 4.37561Z" fill="black"/>
</svg>
