<svg xmlns="http://www.w3.org/2000/svg" width="754.35999mm" height="92.889999mm" viewBox="0 0 754.35999 92.889992"><path d="M7.453 64.706 7.2 35.976C7.841 19.64 15.16 10.781 27.068 7.17c11.908-3.61 28.406-1.976 41.686 3.053l-3.946 8.881C38.06 14.408 21.95 13.797 21.95 44.025c0 9.385.408 19.686 2.4 25.043 1.992 5.357 9.399 7.479 9.399 7.479l22.806.123V50.733h-11.45l-9.297-10.732 30.076-.013c1.011 0 3.236 2.27 3.236 3.236l-.043 44.658-41.435.061c-12.928 0-20.189-15.325-20.189-23.237zm494.944 5.71-.53-64.401H515.3l.512 61.966c0 2.906 7.385 8.65 15.155 8.65s17.483-5.52 17.483-9.352l.006-61.264h13.416v61.387c0 10.32-11.589 21.3-29.3 21.3-17.712 0-30.175-10.613-30.175-18.286zM90.476 76.757l.256-31.723.256-29.482c0-3.204 6.49-9.537 10.504-9.537h42.449l-.231 11.627h-36.793c-2.126.915-2.176 1.233-2.96 3.27v49.674c0 3.387 4.013 5.076 6.11 5.076l33.242-.664 1.748 9.312c-14.323 4.707-26.904 3.527-42.391 3.637-3.436 0-12.19-6.769-12.19-11.19zm197.75-.534-.03-59.547c0-3.903 6.262-10.661 11.297-10.661h42.611l-.24 9.81c0 .649-1.243 1.817-1.9 1.817h-34.067c-2.33 0-4.184 2.01-4.184 4.284l-.143 47.642c0 2.506 4.364 6.194 7.508 6.194l32.556-.847.884 9.869c-12.865 3.385-25.403 2.876-38.67 3.188-8.224 0-15.622-7.039-15.622-11.75zm313.446 11.34c-8.703-.745-16.22-2.978-24.436-5.62l3.13-11.606s13.913 3.534 21.137 4.163c3.797.33 11.598-.108 11.598-.108 5.91-2.313 10.785-7.464 9.386-12.685-5.395-12.131-44.538-9.483-42.563-36.799 2.84-27.25 41.875-20.204 56.305-13.352l-4.072 9.901c-7.792-2.458-38.088-10.668-38.088 5.14.367 14.167 40.072 10.616 43.254 34.788 1.627 15.55-12.257 25.947-22.236 25.947zm83.771-42.196c0-34.964 24.967-49.27 61.152-34.735-1.014 3.051-2.297 6.642-3.31 9.693-22.632-5.193-42.016-5.2-43.51 22.27 0 33.176 11.053 33.822 43.787 30.05l3.856 10.323c-45.41 17.596-61.975-7.895-61.975-37.6zM163.88 9.88c0-2.305.66-3.864 2.256-3.864h16.249c1.892 0 2.754 2.227 2.754 2.227L216.2 70.856l.47-64.841h13.392v77.741c0 1.554-1.918 3.646-3.326 3.646h-14.415c-1.04 0-2.41-1.054-2.817-1.76l-31.762-63.976-.47 65.736H163.88zm88.543-3.864h13.415v81.387h-13.415zm147.57 2.81c.169-1.2 1.57-2.81 2.81-2.81h21.06c1.186 0 2.787 1.502 2.787 3.13L438.5 60.484c.414 1.545 2.226 2.055 2.667.41L452.99 9.145c.405-1.887 1.448-2.995 2.729-3.13h21.06c2.56-.067 2.655 2.656 2.655 2.656l5.664 78.731h-14.176l-5.195-69.8s-.845-1.48-1.789-.064l-10.444 47.058c-1.59 7.034-5.287 9.87-13.858 9.87-8.57 0-10.762-3.568-12.988-9.38l-10.955-47.444c-.314-.981-1.683-.882-1.796.143l-4.962 69.617h-13.897Zm254.894 19.147 13.416 13.326v46.104h-13.416ZM316.014 51.049l-11.197-11.943h34.358l.048 11.941zM106.486 39.143l34.14-.037v11.627h-22.981zm548.4-22.885V6.015h13.416v23.253h-.492z"/></svg>