<svg width="25" height="25" viewBox="0 0 25 25" fill="none" xmlns="http://www.w3.org/2000/svg">
<g clip-path="url(#clip0_12_4)">
<path d="M12.5 0C5.59687 0 0 5.59687 0 12.5C0 19.4031 5.59687 25 12.5 25C19.4031 25 25 19.4031 25 12.5C25 5.59687 19.4031 0 12.5 0ZM17.126 17.5958C14.9365 17.7458 10.0594 17.7458 7.87292 17.5958C5.50208 17.4333 5.22604 16.2729 5.20833 12.5C5.22604 8.71979 5.50521 7.56667 7.87292 7.40417C10.0594 7.25417 14.9375 7.25417 17.126 7.40417C19.4979 7.56667 19.7729 8.72708 19.7917 12.5C19.7729 16.2802 19.4948 17.4333 17.126 17.5958ZM10.4167 10.0604L15.5385 12.4958L10.4167 14.9396V10.0604Z" fill="#555555"/>
</g>
<defs>
<clipPath id="clip0_12_4">
<rect width="25" height="25" fill="white"/>
</clipPath>
</defs>
</svg>
